# xmcd CD database file
#
# Track frame offsets:
#	150
#	10974
#	21185
#	35105
#	50649
#	65088
#	76139
#	89669
#	103399
#	115099
#	125192
#	140473
#
# Disc length: 2035 seconds
#
# Revision: 0
# Processed by: cddbd v1.5.2PL0 Copyright (c) Steve Scherf et al.
# Submitted via: CDex 1.51
#
DISCID=b107f10c
DTITLE=Bobby Visitor - Mother
DYEAR=1900
DGENRE=Country
TTITLE0=The Bible
TTITLE1=Son
TTITLE2=Mother
TTITLE3=First Fall of Snow
TTITLE4=Paul's People
TTITLE5=Flowers are Blooming
TTITLE6=She's My Mother
TTITLE7=Nobody's Child
TTITLE8=When God Comes and Gathers His Jewels
TTITLE9=May You Never Be Alone
TTITLE10=Take This Message To My Mother
TTITLE11=I Saw the Light
EXTD=
EXTT0=
EXTT1=
EXTT2=
EXTT3=
EXTT4=
EXTT5=
EXTT6=
EXTT7=
EXTT8=
EXTT9=
EXTT10=
EXTT11=
PLAYORDER=
